<svg xmlns="http://www.w3.org/2000/svg" viewBox="0 0 416.79 740.96"><rect width="416.79" height="740.96" fill="#ffffff" id="bg" class="bg"/><g><g transform="translate(52.10,&#10;                                0.00) rotate(90, 26.049375, 26.049375)"><svg xmlns="http://www.w3.org/2000/svg" id="Layer_1" data-name="Layer 1" viewBox="0 0 100 100" width="52.09875" height="52.09875"><path d="M50,100h0A50,50,0,0,1,0,50V0H100V50A50,50,0,0,1,50,100Z" fill="#F18701"/></svg></g><g transform="translate(0.00,&#10;                                52.10) rotate(0, 26.049375, 26.049375)"><svg xmlns="http://www.w3.org/2000/svg" id="Layer_1" data-name="Layer 1" viewBox="0 0 100 100" width="52.09875" height="52.09875"><path d="M100,100A50,50,0,0,0,0,100Z" fill="#F7B801"/></svg></g><g transform="translate(156.30,&#10;                                0.00) rotate(90, 26.049375, 26.049375)"><svg xmlns="http://www.w3.org/2000/svg" id="Layer_1" data-name="Layer 1" viewBox="0 0 100 100" width="52.09875" height="52.09875"><path d="M50,100h0A50,50,0,0,1,0,50V0H100V50A50,50,0,0,1,50,100Z" fill="#F18701"/></svg></g><g transform="translate(104.20,&#10;                                52.10) rotate(270, 26.049375, 26.049375)"><svg xmlns="http://www.w3.org/2000/svg" id="Layer_1" data-name="Layer 1" viewBox="0 0 100 100" width="52.09875" height="52.09875"><path d="M100,100A50,50,0,0,0,0,100Z" fill="#F7B801"/></svg></g><g transform="translate(156.30,&#10;                                52.10) rotate(90, 26.049375, 26.049375)"><svg xmlns="http://www.w3.org/2000/svg" id="Layer_1" data-name="Layer 1" viewBox="0 0 100 100" width="52.09875" height="52.09875"><path d="M50,100h0A50,50,0,0,1,0,50V0H100V50A50,50,0,0,1,50,100Z" fill="#F18701"/></svg></g><g transform="translate(208.40,&#10;                                0.00) rotate(180, 26.049375, 26.049375)"><svg xmlns="http://www.w3.org/2000/svg" id="Layer_1" data-name="Layer 1" viewBox="0 0 100 100" width="52.09875" height="52.09875"><path d="M100,100A50,50,0,0,0,0,100Z" fill="#F7B801"/></svg></g><g transform="translate(260.49,&#10;                                0.00) rotate(180, 26.049375, 26.049375)"><svg xmlns="http://www.w3.org/2000/svg" id="Layer_1" data-name="Layer 1" viewBox="0 0 100 100" width="52.09875" height="52.09875"><path d="M50,100h0A50,50,0,0,1,0,50V0H100V50A50,50,0,0,1,50,100Z" fill="#F18701"/></svg></g><g transform="translate(364.69,&#10;                                0.00) rotate(270, 26.049375, 26.049375)"><svg xmlns="http://www.w3.org/2000/svg" id="Layer_1" data-name="Layer 1" viewBox="0 0 100 100" width="52.09875" height="52.09875"><path d="M50,100h0A50,50,0,0,1,0,50V0H100V50A50,50,0,0,1,50,100Z" fill="#F18701"/></svg></g><g transform="translate(364.69,&#10;                                52.10) rotate(270, 26.049375, 26.049375)"><svg xmlns="http://www.w3.org/2000/svg" id="Layer_1" data-name="Layer 1" viewBox="0 0 100 100" width="52.09875" height="52.09875"><path d="M100,100A50,50,0,0,0,0,100Z" fill="#F7B801"/></svg></g></g><g><g transform="translate(0.00,&#10;                                104.20) rotate(270, 26.049375, 26.049375)"><svg xmlns="http://www.w3.org/2000/svg" id="Layer_1" data-name="Layer 1" viewBox="0 0 100 100" width="52.09875" height="52.09875"><path d="M100,100A50,50,0,0,0,0,100Z" fill="#F7B801"/></svg></g><g transform="translate(0.00,&#10;                                156.30) rotate(270, 26.049375, 26.049375)"><svg xmlns="http://www.w3.org/2000/svg" id="Layer_1" data-name="Layer 1" viewBox="0 0 100 100" width="52.09875" height="52.09875"><circle cx="50" cy="50" r="50" fill="#3D348B"/></svg></g><g transform="translate(104.20,&#10;                                104.20) rotate(180, 26.049375, 26.049375)"><svg xmlns="http://www.w3.org/2000/svg" id="Layer_1" data-name="Layer 1" viewBox="0 0 100 100" width="52.09875" height="52.09875"><path d="M100,100A50,50,0,0,0,0,100Z" fill="#F7B801"/></svg></g><g transform="translate(104.20,&#10;                                156.30) rotate(270, 26.049375, 26.049375)"><svg xmlns="http://www.w3.org/2000/svg" id="Layer_1" data-name="Layer 1" viewBox="0 0 100 100" width="52.09875" height="52.09875"><path d="M100,100A50,50,0,0,0,0,100Z" fill="#F7B801"/></svg></g><g transform="translate(156.30,&#10;                                156.30) rotate(0, 26.049375, 26.049375)"><svg xmlns="http://www.w3.org/2000/svg" id="Layer_1" data-name="Layer 1" viewBox="0 0 100 100" width="52.09875" height="52.09875"><path d="M100,100A50,50,0,0,0,0,100Z" fill="#F7B801"/></svg></g><g transform="translate(208.40,&#10;                                156.30) rotate(270, 26.049375, 26.049375)"><svg xmlns="http://www.w3.org/2000/svg" id="Layer_1" data-name="Layer 1" viewBox="0 0 100 100" width="52.09875" height="52.09875"><circle cx="50" cy="50" r="50" fill="#3D348B"/></svg></g><g transform="translate(260.49,&#10;                                156.30) rotate(270, 26.049375, 26.049375)"><svg xmlns="http://www.w3.org/2000/svg" id="Layer_1" data-name="Layer 1" viewBox="0 0 100 100" width="52.09875" height="52.09875"><circle cx="50" cy="50" r="50" fill="#3D348B"/></svg></g><g transform="translate(312.59,&#10;                                156.30) rotate(270, 26.049375, 26.049375)"><svg xmlns="http://www.w3.org/2000/svg" id="Layer_1" data-name="Layer 1" viewBox="0 0 100 100" width="52.09875" height="52.09875"><path d="M50,100a50,50,0,1,1,50-50v50Z" fill="#7678ED"/></svg></g></g><g><g transform="translate(0.00,&#10;                                208.40) rotate(90, 26.049375, 26.049375)"><svg xmlns="http://www.w3.org/2000/svg" id="Layer_1" data-name="Layer 1" viewBox="0 0 100 100" width="52.09875" height="52.09875"><path d="M100,100A50,50,0,0,0,0,100Z" fill="#F7B801"/></svg></g><g transform="translate(0.00,&#10;                                260.49) rotate(270, 26.049375, 26.049375)"><svg xmlns="http://www.w3.org/2000/svg" id="Layer_1" data-name="Layer 1" viewBox="0 0 100 100" width="52.09875" height="52.09875"><circle cx="50" cy="50" r="50" fill="#3D348B"/></svg></g><g transform="translate(52.10,&#10;                                260.49) rotate(180, 26.049375, 26.049375)"><svg xmlns="http://www.w3.org/2000/svg" id="Layer_1" data-name="Layer 1" viewBox="0 0 100 100" width="52.09875" height="52.09875"><path d="M50,100h0A50,50,0,0,1,0,50V0H100V50A50,50,0,0,1,50,100Z" fill="#F18701"/></svg></g><g transform="translate(104.20,&#10;                                208.40) rotate(0, 26.049375, 26.049375)"><svg xmlns="http://www.w3.org/2000/svg" id="Layer_1" data-name="Layer 1" viewBox="0 0 100 100" width="52.09875" height="52.09875"><path d="M100,100A50,50,0,0,0,0,100Z" fill="#F7B801"/></svg></g><g transform="translate(156.30,&#10;                                260.49) rotate(90, 26.049375, 26.049375)"><svg xmlns="http://www.w3.org/2000/svg" id="Layer_1" data-name="Layer 1" viewBox="0 0 100 100" width="52.09875" height="52.09875"><circle cx="50" cy="50" r="50" fill="#3D348B"/></svg></g><g transform="translate(208.40,&#10;                                208.40) rotate(270, 26.049375, 26.049375)"><svg xmlns="http://www.w3.org/2000/svg" id="Layer_1" data-name="Layer 1" viewBox="0 0 100 100" width="52.09875" height="52.09875"><path d="M100,100A50,50,0,0,0,0,100Z" fill="#F7B801"/></svg></g><g transform="translate(260.49,&#10;                                208.40) rotate(270, 26.049375, 26.049375)"><svg xmlns="http://www.w3.org/2000/svg" id="Layer_1" data-name="Layer 1" viewBox="0 0 100 100" width="52.09875" height="52.09875"><path d="M50,100h0A50,50,0,0,1,0,50V0H100V50A50,50,0,0,1,50,100Z" fill="#F18701"/></svg></g><g transform="translate(312.59,&#10;                                208.40) rotate(270, 26.049375, 26.049375)"><svg xmlns="http://www.w3.org/2000/svg" id="Layer_1" data-name="Layer 1" viewBox="0 0 100 100" width="52.09875" height="52.09875"><path d="M50,100h0A50,50,0,0,1,0,50V0H100V50A50,50,0,0,1,50,100Z" fill="#F18701"/></svg></g><g transform="translate(312.59,&#10;                                260.49) rotate(0, 26.049375, 26.049375)"><svg xmlns="http://www.w3.org/2000/svg" id="Layer_1" data-name="Layer 1" viewBox="0 0 100 100" width="52.09875" height="52.09875"><circle cx="50" cy="50" r="50" fill="#3D348B"/></svg></g><g transform="translate(364.69,&#10;                                260.49) rotate(270, 26.049375, 26.049375)"><svg xmlns="http://www.w3.org/2000/svg" id="Layer_1" data-name="Layer 1" viewBox="0 0 100 100" width="52.09875" height="52.09875"><path d="M100,100A50,50,0,0,0,0,100Z" fill="#F7B801"/></svg></g></g><g><g transform="translate(0.00,&#10;                                312.59) rotate(0, 26.049375, 26.049375)"><svg xmlns="http://www.w3.org/2000/svg" id="Layer_1" data-name="Layer 1" viewBox="0 0 100 100" width="52.09875" height="52.09875"><path d="M50,100h0A50,50,0,0,1,0,50V0H100V50A50,50,0,0,1,50,100Z" fill="#F18701"/></svg></g><g transform="translate(0.00,&#10;                                364.69) rotate(0, 26.049375, 26.049375)"><svg xmlns="http://www.w3.org/2000/svg" id="Layer_1" data-name="Layer 1" viewBox="0 0 100 100" width="52.09875" height="52.09875"><circle cx="50" cy="50" r="50" fill="#3D348B"/></svg></g><g transform="translate(52.10,&#10;                                364.69) rotate(90, 26.049375, 26.049375)"><svg xmlns="http://www.w3.org/2000/svg" id="Layer_1" data-name="Layer 1" viewBox="0 0 100 100" width="52.09875" height="52.09875"><circle cx="50" cy="50" r="50" fill="#3D348B"/></svg></g><g transform="translate(104.20,&#10;                                312.59) rotate(180, 26.049375, 26.049375)"><svg xmlns="http://www.w3.org/2000/svg" id="Layer_1" data-name="Layer 1" viewBox="0 0 100 100" width="52.09875" height="52.09875"><path d="M100,100A50,50,0,0,0,0,100Z" fill="#F7B801"/></svg></g><g transform="translate(156.30,&#10;                                312.59) rotate(0, 26.049375, 26.049375)"><svg xmlns="http://www.w3.org/2000/svg" id="Layer_1" data-name="Layer 1" viewBox="0 0 100 100" width="52.09875" height="52.09875"><path d="M50,100h0A50,50,0,0,1,0,50V0H100V50A50,50,0,0,1,50,100Z" fill="#F18701"/></svg></g><g transform="translate(104.20,&#10;                                364.69) rotate(0, 26.049375, 26.049375)"><svg xmlns="http://www.w3.org/2000/svg" id="Layer_1" data-name="Layer 1" viewBox="0 0 100 100" width="52.09875" height="52.09875"><circle cx="50" cy="50" r="50" fill="#3D348B"/></svg></g><g transform="translate(208.40,&#10;                                312.59) rotate(180, 26.049375, 26.049375)"><svg xmlns="http://www.w3.org/2000/svg" id="Layer_1" data-name="Layer 1" viewBox="0 0 100 100" width="52.09875" height="52.09875"><path d="M100,100A50,50,0,0,0,0,100Z" fill="#F7B801"/></svg></g><g transform="translate(208.40,&#10;                                364.69) rotate(0, 26.049375, 26.049375)"><svg xmlns="http://www.w3.org/2000/svg" id="Layer_1" data-name="Layer 1" viewBox="0 0 100 100" width="52.09875" height="52.09875"><circle cx="50" cy="50" r="50" fill="#3D348B"/></svg></g><g transform="translate(260.49,&#10;                                364.69) rotate(0, 26.049375, 26.049375)"><svg xmlns="http://www.w3.org/2000/svg" id="Layer_1" data-name="Layer 1" viewBox="0 0 100 100" width="52.09875" height="52.09875"><path d="M100,100A50,50,0,0,0,0,100Z" fill="#F7B801"/></svg></g><g transform="translate(312.59,&#10;                                312.59) rotate(90, 26.049375, 26.049375)"><svg xmlns="http://www.w3.org/2000/svg" id="Layer_1" data-name="Layer 1" viewBox="0 0 100 100" width="52.09875" height="52.09875"><path d="M100,100A50,50,0,0,0,0,100Z" fill="#F7B801"/></svg></g><g transform="translate(364.69,&#10;                                312.59) rotate(0, 26.049375, 26.049375)"><svg xmlns="http://www.w3.org/2000/svg" id="Layer_1" data-name="Layer 1" viewBox="0 0 100 100" width="52.09875" height="52.09875"><path d="M50,100h0A50,50,0,0,1,0,50V0H100V50A50,50,0,0,1,50,100Z" fill="#F18701"/></svg></g><g transform="translate(312.59,&#10;                                364.69) rotate(0, 26.049375, 26.049375)"><svg xmlns="http://www.w3.org/2000/svg" id="Layer_1" data-name="Layer 1" viewBox="0 0 100 100" width="52.09875" height="52.09875"><circle cx="50" cy="50" r="50" fill="#3D348B"/></svg></g></g><g><g transform="translate(0.00,&#10;                                416.79) rotate(0, 26.049375, 26.049375)"><svg xmlns="http://www.w3.org/2000/svg" id="Layer_1" data-name="Layer 1" viewBox="0 0 100 100" width="52.09875" height="52.09875"><path d="M100,100A50,50,0,0,0,0,100Z" fill="#F7B801"/></svg></g><g transform="translate(0.00,&#10;                                468.89) rotate(90, 26.049375, 26.049375)"><svg xmlns="http://www.w3.org/2000/svg" id="Layer_1" data-name="Layer 1" viewBox="0 0 100 100" width="52.09875" height="52.09875"><path d="M50,100a50,50,0,1,1,50-50v50Z" fill="#7678ED"/></svg></g><g transform="translate(156.30,&#10;                                416.79) rotate(270, 26.049375, 26.049375)"><svg xmlns="http://www.w3.org/2000/svg" id="Layer_1" data-name="Layer 1" viewBox="0 0 100 100" width="52.09875" height="52.09875"><path d="M50,100h0A50,50,0,0,1,0,50V0H100V50A50,50,0,0,1,50,100Z" fill="#F18701"/></svg></g><g transform="translate(104.20,&#10;                                468.89) rotate(270, 26.049375, 26.049375)"><svg xmlns="http://www.w3.org/2000/svg" id="Layer_1" data-name="Layer 1" viewBox="0 0 100 100" width="52.09875" height="52.09875"><path d="M50,100a50,50,0,1,1,50-50v50Z" fill="#7678ED"/></svg></g><g transform="translate(156.30,&#10;                                468.89) rotate(0, 26.049375, 26.049375)"><svg xmlns="http://www.w3.org/2000/svg" id="Layer_1" data-name="Layer 1" viewBox="0 0 100 100" width="52.09875" height="52.09875"><path d="M100,100A50,50,0,0,0,0,100Z" fill="#F7B801"/></svg></g><g transform="translate(208.40,&#10;                                416.79) rotate(90, 26.049375, 26.049375)"><svg xmlns="http://www.w3.org/2000/svg" id="Layer_1" data-name="Layer 1" viewBox="0 0 100 100" width="52.09875" height="52.09875"><path d="M100,100A50,50,0,0,0,0,100Z" fill="#F7B801"/></svg></g><g transform="translate(208.40,&#10;                                468.89) rotate(270, 26.049375, 26.049375)"><svg xmlns="http://www.w3.org/2000/svg" id="Layer_1" data-name="Layer 1" viewBox="0 0 100 100" width="52.09875" height="52.09875"><path d="M50,100a50,50,0,1,1,50-50v50Z" fill="#7678ED"/></svg></g><g transform="translate(260.49,&#10;                                468.89) rotate(90, 26.049375, 26.049375)"><svg xmlns="http://www.w3.org/2000/svg" id="Layer_1" data-name="Layer 1" viewBox="0 0 100 100" width="52.09875" height="52.09875"><path d="M50,100h0A50,50,0,0,1,0,50V0H100V50A50,50,0,0,1,50,100Z" fill="#F18701"/></svg></g><g transform="translate(312.59,&#10;                                416.79) rotate(180, 26.049375, 26.049375)"><svg xmlns="http://www.w3.org/2000/svg" id="Layer_1" data-name="Layer 1" viewBox="0 0 100 100" width="52.09875" height="52.09875"><path d="M100,100A50,50,0,0,0,0,100Z" fill="#F7B801"/></svg></g><g transform="translate(364.69,&#10;                                416.79) rotate(180, 26.049375, 26.049375)"><svg xmlns="http://www.w3.org/2000/svg" id="Layer_1" data-name="Layer 1" viewBox="0 0 100 100" width="52.09875" height="52.09875"><path d="M50,100a50,50,0,1,1,50-50v50Z" fill="#7678ED"/></svg></g><g transform="translate(312.59,&#10;                                468.89) rotate(90, 26.049375, 26.049375)"><svg xmlns="http://www.w3.org/2000/svg" id="Layer_1" data-name="Layer 1" viewBox="0 0 100 100" width="52.09875" height="52.09875"><path d="M50,100a50,50,0,1,1,50-50v50Z" fill="#7678ED"/></svg></g></g><g><g transform="translate(0.00,&#10;                                520.99) rotate(180, 26.049375, 26.049375)"><svg xmlns="http://www.w3.org/2000/svg" id="Layer_1" data-name="Layer 1" viewBox="0 0 100 100" width="52.09875" height="52.09875"><path d="M50,100h0A50,50,0,0,1,0,50V0H100V50A50,50,0,0,1,50,100Z" fill="#F18701"/></svg></g><g transform="translate(52.10,&#10;                                520.99) rotate(270, 26.049375, 26.049375)"><svg xmlns="http://www.w3.org/2000/svg" id="Layer_1" data-name="Layer 1" viewBox="0 0 100 100" width="52.09875" height="52.09875"><path d="M50,100h0A50,50,0,0,1,0,50V0H100V50A50,50,0,0,1,50,100Z" fill="#F18701"/></svg></g><g transform="translate(0.00,&#10;                                573.09) rotate(90, 26.049375, 26.049375)"><svg xmlns="http://www.w3.org/2000/svg" id="Layer_1" data-name="Layer 1" viewBox="0 0 100 100" width="52.09875" height="52.09875"><circle cx="50" cy="50" r="50" fill="#3D348B"/></svg></g><g transform="translate(52.10,&#10;                                573.09) rotate(90, 26.049375, 26.049375)"><svg xmlns="http://www.w3.org/2000/svg" id="Layer_1" data-name="Layer 1" viewBox="0 0 100 100" width="52.09875" height="52.09875"><path d="M50,100h0A50,50,0,0,1,0,50V0H100V50A50,50,0,0,1,50,100Z" fill="#F18701"/></svg></g><g transform="translate(104.20,&#10;                                520.99) rotate(90, 26.049375, 26.049375)"><svg xmlns="http://www.w3.org/2000/svg" id="Layer_1" data-name="Layer 1" viewBox="0 0 100 100" width="52.09875" height="52.09875"><path d="M100,100A50,50,0,0,0,0,100Z" fill="#F7B801"/></svg></g><g transform="translate(104.20,&#10;                                573.09) rotate(0, 26.049375, 26.049375)"><svg xmlns="http://www.w3.org/2000/svg" id="Layer_1" data-name="Layer 1" viewBox="0 0 100 100" width="52.09875" height="52.09875"><circle cx="50" cy="50" r="50" fill="#3D348B"/></svg></g><g transform="translate(208.40,&#10;                                520.99) rotate(0, 26.049375, 26.049375)"><svg xmlns="http://www.w3.org/2000/svg" id="Layer_1" data-name="Layer 1" viewBox="0 0 100 100" width="52.09875" height="52.09875"><path d="M50,100h0A50,50,0,0,1,0,50V0H100V50A50,50,0,0,1,50,100Z" fill="#F18701"/></svg></g><g transform="translate(312.59,&#10;                                520.99) rotate(180, 26.049375, 26.049375)"><svg xmlns="http://www.w3.org/2000/svg" id="Layer_1" data-name="Layer 1" viewBox="0 0 100 100" width="52.09875" height="52.09875"><path d="M100,100A50,50,0,0,0,0,100Z" fill="#F7B801"/></svg></g><g transform="translate(364.69,&#10;                                520.99) rotate(270, 26.049375, 26.049375)"><svg xmlns="http://www.w3.org/2000/svg" id="Layer_1" data-name="Layer 1" viewBox="0 0 100 100" width="52.09875" height="52.09875"><path d="M50,100h0A50,50,0,0,1,0,50V0H100V50A50,50,0,0,1,50,100Z" fill="#F18701"/></svg></g><g transform="translate(312.59,&#10;                                573.09) rotate(270, 26.049375, 26.049375)"><svg xmlns="http://www.w3.org/2000/svg" id="Layer_1" data-name="Layer 1" viewBox="0 0 100 100" width="52.09875" height="52.09875"><circle cx="50" cy="50" r="50" fill="#3D348B"/></svg></g><g transform="translate(364.69,&#10;                                573.09) rotate(0, 26.049375, 26.049375)"><svg xmlns="http://www.w3.org/2000/svg" id="Layer_1" data-name="Layer 1" viewBox="0 0 100 100" width="52.09875" height="52.09875"><circle cx="50" cy="50" r="50" fill="#3D348B"/></svg></g></g><g><g transform="translate(0.00,&#10;                                677.28) rotate(270, 26.049375, 26.049375)"><svg xmlns="http://www.w3.org/2000/svg" id="Layer_1" data-name="Layer 1" viewBox="0 0 100 100" width="52.09875" height="52.09875"><circle cx="50" cy="50" r="50" fill="#3D348B"/></svg></g><g transform="translate(104.20,&#10;                                625.19) rotate(90, 26.049375, 26.049375)"><svg xmlns="http://www.w3.org/2000/svg" id="Layer_1" data-name="Layer 1" viewBox="0 0 100 100" width="52.09875" height="52.09875"><path d="M50,100h0A50,50,0,0,1,0,50V0H100V50A50,50,0,0,1,50,100Z" fill="#F18701"/></svg></g><g transform="translate(208.40,&#10;                                625.19) rotate(270, 26.049375, 26.049375)"><svg xmlns="http://www.w3.org/2000/svg" id="Layer_1" data-name="Layer 1" viewBox="0 0 100 100" width="52.09875" height="52.09875"><path d="M100,100A50,50,0,0,0,0,100Z" fill="#F7B801"/></svg></g><g transform="translate(260.49,&#10;                                625.19) rotate(90, 26.049375, 26.049375)"><svg xmlns="http://www.w3.org/2000/svg" id="Layer_1" data-name="Layer 1" viewBox="0 0 100 100" width="52.09875" height="52.09875"><path d="M50,100h0A50,50,0,0,1,0,50V0H100V50A50,50,0,0,1,50,100Z" fill="#F18701"/></svg></g><g transform="translate(364.69,&#10;                                625.19) rotate(90, 26.049375, 26.049375)"><svg xmlns="http://www.w3.org/2000/svg" id="Layer_1" data-name="Layer 1" viewBox="0 0 100 100" width="52.09875" height="52.09875"><path d="M50,100h0A50,50,0,0,1,0,50V0H100V50A50,50,0,0,1,50,100Z" fill="#F18701"/></svg></g><g transform="translate(312.59,&#10;                                677.28) rotate(270, 26.049375, 26.049375)"><svg xmlns="http://www.w3.org/2000/svg" id="Layer_1" data-name="Layer 1" viewBox="0 0 100 100" width="52.09875" height="52.09875"><circle cx="50" cy="50" r="50" fill="#3D348B"/></svg></g></g><g><g transform="translate(0.00,&#10;                                729.38) rotate(90, 26.049375, 26.049375)"><svg xmlns="http://www.w3.org/2000/svg" id="Layer_1" data-name="Layer 1" viewBox="0 0 100 100" width="52.09875" height="52.09875"><path d="M50,100h0A50,50,0,0,1,0,50V0H100V50A50,50,0,0,1,50,100Z" fill="#F18701"/></svg></g><g transform="translate(0.00,&#10;                                781.48) rotate(180, 26.049375, 26.049375)"><svg xmlns="http://www.w3.org/2000/svg" id="Layer_1" data-name="Layer 1" viewBox="0 0 100 100" width="52.09875" height="52.09875"><path d="M50,100a50,50,0,1,1,50-50v50Z" fill="#7678ED"/></svg></g><g transform="translate(52.10,&#10;                                781.48) rotate(270, 26.049375, 26.049375)"><svg xmlns="http://www.w3.org/2000/svg" id="Layer_1" data-name="Layer 1" viewBox="0 0 100 100" width="52.09875" height="52.09875"><circle cx="50" cy="50" r="50" fill="#3D348B"/></svg></g><g transform="translate(104.20,&#10;                                729.38) rotate(270, 26.049375, 26.049375)"><svg xmlns="http://www.w3.org/2000/svg" id="Layer_1" data-name="Layer 1" viewBox="0 0 100 100" width="52.09875" height="52.09875"><path d="M50,100h0A50,50,0,0,1,0,50V0H100V50A50,50,0,0,1,50,100Z" fill="#F18701"/></svg></g><g transform="translate(104.20,&#10;                                781.48) rotate(180, 26.049375, 26.049375)"><svg xmlns="http://www.w3.org/2000/svg" id="Layer_1" data-name="Layer 1" viewBox="0 0 100 100" width="52.09875" height="52.09875"><path d="M50,100a50,50,0,1,1,50-50v50Z" fill="#7678ED"/></svg></g><g transform="translate(156.30,&#10;                                781.48) rotate(90, 26.049375, 26.049375)"><svg xmlns="http://www.w3.org/2000/svg" id="Layer_1" data-name="Layer 1" viewBox="0 0 100 100" width="52.09875" height="52.09875"><path d="M100,100A50,50,0,0,0,0,100Z" fill="#F7B801"/></svg></g><g transform="translate(208.40,&#10;                                729.38) rotate(90, 26.049375, 26.049375)"><svg xmlns="http://www.w3.org/2000/svg" id="Layer_1" data-name="Layer 1" viewBox="0 0 100 100" width="52.09875" height="52.09875"><path d="M50,100h0A50,50,0,0,1,0,50V0H100V50A50,50,0,0,1,50,100Z" fill="#F18701"/></svg></g><g transform="translate(208.40,&#10;                                781.48) rotate(90, 26.049375, 26.049375)"><svg xmlns="http://www.w3.org/2000/svg" id="Layer_1" data-name="Layer 1" viewBox="0 0 100 100" width="52.09875" height="52.09875"><circle cx="50" cy="50" r="50" fill="#3D348B"/></svg></g><g transform="translate(260.49,&#10;                                781.48) rotate(90, 26.049375, 26.049375)"><svg xmlns="http://www.w3.org/2000/svg" id="Layer_1" data-name="Layer 1" viewBox="0 0 100 100" width="52.09875" height="52.09875"><path d="M100,100A50,50,0,0,0,0,100Z" fill="#F7B801"/></svg></g><g transform="translate(312.59,&#10;                                729.38) rotate(180, 26.049375, 26.049375)"><svg xmlns="http://www.w3.org/2000/svg" id="Layer_1" data-name="Layer 1" viewBox="0 0 100 100" width="52.09875" height="52.09875"><path d="M50,100h0A50,50,0,0,1,0,50V0H100V50A50,50,0,0,1,50,100Z" fill="#F18701"/></svg></g><g transform="translate(364.69,&#10;                                729.38) rotate(90, 26.049375, 26.049375)"><svg xmlns="http://www.w3.org/2000/svg" id="Layer_1" data-name="Layer 1" viewBox="0 0 100 100" width="52.09875" height="52.09875"><path d="M50,100h0A50,50,0,0,1,0,50V0H100V50A50,50,0,0,1,50,100Z" fill="#F18701"/></svg></g><g transform="translate(312.59,&#10;                                781.48) rotate(270, 26.049375, 26.049375)"><svg xmlns="http://www.w3.org/2000/svg" id="Layer_1" data-name="Layer 1" viewBox="0 0 100 100" width="52.09875" height="52.09875"><circle cx="50" cy="50" r="50" fill="#3D348B"/></svg></g></g></svg>