<svg xmlns="http://www.w3.org/2000/svg"  viewBox="0 0 40 40" width="80px" height="80px"><path fill="#ffeea3" d="M17.8,33.6l-0.2,0c-0.8-0.1-1.5-0.3-2.3-0.6l-0.2-0.1l-4,2.7l0.3-4.8l-0.2-0.2c-0.6-0.5-1.2-1.1-1.7-1.7	l-0.2-0.2l-4.8,0.3l2.7-4l-0.1-0.2c-0.3-0.7-0.5-1.5-0.6-2.3l0-0.2L2.1,20l4.3-2.2l0-0.2c0.1-0.8,0.3-1.5,0.6-2.3l0.1-0.2l-2.7-4	l4.8,0.3l0.2-0.2c0.5-0.6,1.1-1.2,1.7-1.7l0.2-0.2l-0.3-4.8l4,2.7l0.2-0.1c0.7-0.3,1.5-0.5,2.3-0.6l0.2,0L20,2.1l2.2,4.3l0.2,0	c0.8,0.1,1.5,0.3,2.3,0.6l0.2,0.1l4-2.7l-0.3,4.8l0.2,0.2c0.6,0.5,1.2,1.1,1.7,1.7l0.2,0.2l4.8-0.3l-2.7,4l0.1,0.2	c0.3,0.7,0.5,1.5,0.6,2.3l0,0.2l4.3,2.2l-4.3,2.2l0,0.2c-0.1,0.8-0.3,1.5-0.6,2.3l-0.1,0.2l2.7,4l-4.8-0.3l-0.2,0.2	c-0.5,0.6-1.1,1.2-1.7,1.7l-0.2,0.2l0.3,4.8l-4-2.7l-0.2,0.1c-0.7,0.3-1.5,0.5-2.3,0.6l-0.2,0L20,37.9L17.8,33.6z"/><path fill="#ba9b48" d="M20,3.2l1.6,3.2l0.2,0.4L22.3,7c0.7,0.1,1.5,0.3,2.2,0.6L25,7.7l0.4-0.3l3-2L28.2,9l0,0.5l0.4,0.3	c0.6,0.5,1.1,1,1.6,1.6l0.3,0.4l0.5,0l3.6-0.2l-2,3L32.3,15l0.2,0.5c0.3,0.7,0.5,1.5,0.6,2.2l0.1,0.5l0.5,0.2l3.2,1.6l-3.2,1.6	l-0.5,0.2L33,22.3c-0.1,0.7-0.3,1.5-0.6,2.2L32.3,25l0.3,0.4l2,3L31,28.2l-0.5,0l-0.3,0.4c-0.5,0.6-1,1.1-1.6,1.6l-0.4,0.3l0,0.5	l0.2,3.6l-3-2L25,32.3l-0.5,0.2c-0.7,0.3-1.5,0.5-2.2,0.6l-0.5,0.1l-0.2,0.5L20,36.8l-1.6-3.2l-0.2-0.5L17.7,33	c-0.7-0.1-1.5-0.3-2.2-0.6L15,32.3l-0.4,0.3l-3,2l0.2-3.6l0-0.5l-0.4-0.3c-0.6-0.5-1.1-1-1.6-1.6l-0.3-0.4l-0.5,0l-3.6,0.2l2-3	L7.7,25l-0.2-0.5c-0.3-0.7-0.5-1.5-0.6-2.2l-0.1-0.5l-0.4-0.2L3.2,20l3.2-1.6l0.4-0.2L7,17.7c0.1-0.7,0.3-1.5,0.6-2.2L7.7,15	l-0.3-0.4l-2-3L9,11.8l0.5,0l0.3-0.4c0.5-0.6,1-1.1,1.6-1.6l0.4-0.3l0-0.5l-0.2-3.6l3,2L15,7.7l0.5-0.2c0.7-0.3,1.5-0.5,2.2-0.6	l0.5-0.1l0.2-0.4L20,3.2 M20,1l-2.5,5c-0.8,0.1-1.6,0.4-2.4,0.6l-4.6-3.1l0.3,5.6c-0.6,0.5-1.2,1.1-1.7,1.7l-5.6-0.3l3.1,4.6	c-0.3,0.8-0.5,1.5-0.6,2.4L1,20l5,2.5c0.1,0.8,0.4,1.6,0.6,2.4l-3.1,4.6l5.6-0.3c0.5,0.6,1.1,1.2,1.7,1.7l-0.3,5.6l4.6-3.1	c0.8,0.3,1.5,0.5,2.4,0.6l2.5,5l2.5-5c0.8-0.1,1.6-0.4,2.4-0.6l4.6,3.1l-0.3-5.6c0.6-0.5,1.2-1.1,1.7-1.7l5.6,0.3l-3.1-4.6	c0.3-0.8,0.5-1.5,0.6-2.4l5-2.5l-5-2.5c-0.1-0.8-0.4-1.6-0.6-2.4l3.1-4.6l-5.6,0.3c-0.5-0.6-1.1-1.2-1.7-1.7l0.3-5.6l-4.6,3.1	c-0.8-0.3-1.5-0.5-2.4-0.6L20,1L20,1z"/><path fill="#f5ce85" d="M20,10c-5.5,0-10,4.5-10,10s4.5,10,10,10s10-4.5,10-10S25.5,10,20,10z"/></svg>